<svg xmlns="http://www.w3.org/2000/svg" viewBox="0 0 203.95 36"><defs><style>.cls-1{fill:#1da1f2;}</style></defs><title>Монтажная область 1</title><g id="Слой_2" data-name="Слой 2"><path d="M62.83,10.12a5.17,5.17,0,0,0-4.3,2A8.66,8.66,0,0,0,57,17.63a8.73,8.73,0,0,0,1.51,5.56,5.24,5.24,0,0,0,4.36,1.89,11.84,11.84,0,0,0,2.4-.25c.77-.17,1.57-.39,2.4-.65V27a14.24,14.24,0,0,1-5.18.89,8.19,8.19,0,0,1-6.56-2.66q-2.28-2.66-2.28-7.61a12.61,12.61,0,0,1,1.11-5.46,8.11,8.11,0,0,1,3.21-3.58,9.48,9.48,0,0,1,4.93-1.24,12,12,0,0,1,5.5,1.28l-1.14,2.72a20.5,20.5,0,0,0-2.08-.84A7.35,7.35,0,0,0,62.83,10.12Z"/><path d="M84.53,20a8.41,8.41,0,0,1-1.85,5.78,6.55,6.55,0,0,1-5.15,2.08,6.89,6.89,0,0,1-3.64-1,6.28,6.28,0,0,1-2.43-2.75A9.52,9.52,0,0,1,70.61,20a8.37,8.37,0,0,1,1.83-5.75,6.59,6.59,0,0,1,5.17-2.06,6.41,6.41,0,0,1,5.06,2.11A8.32,8.32,0,0,1,84.53,20Zm-10.7,0q0,5.23,3.76,5.23T81.31,20q0-5.19-3.75-5.19a3.17,3.17,0,0,0-2.85,1.34A7,7,0,0,0,73.83,20Z"/><path d="M98.48,27.59l-.43-2h-.16A4.63,4.63,0,0,1,96,27.27a6.07,6.07,0,0,1-2.74.6,5.32,5.32,0,0,1-4-1.37A5.75,5.75,0,0,1,88,22.36V12.47h3.15V21.8a4.14,4.14,0,0,0,.69,2.6,2.62,2.62,0,0,0,2.17.87,3.39,3.39,0,0,0,2.89-1.21,6.79,6.79,0,0,0,.93-4V12.47h3.13V27.59Z"/><path d="M118.33,27.59h-3.14V18.3a4.18,4.18,0,0,0-.68-2.61,2.61,2.61,0,0,0-2.18-.87A3.4,3.4,0,0,0,109.44,16a6.78,6.78,0,0,0-.92,4v7.53H105.4V12.47h2.44l.44,2h.16a4.34,4.34,0,0,1,1.89-1.67A6.19,6.19,0,0,1,113,12.2c3.53,0,5.29,1.84,5.29,5.54Z"/><path d="M128.15,25.27a7.27,7.27,0,0,0,2.29-.37v2.42a6.21,6.21,0,0,1-1.34.39,9.31,9.31,0,0,1-1.69.16q-4.44,0-4.44-4.82V14.91h-2V13.48l2.16-1.17,1.06-3.2h1.93v3.36h4.18v2.44h-4.18V23a2.31,2.31,0,0,0,.56,1.72A2.06,2.06,0,0,0,128.15,25.27Z"/><path d="M140.83,12.2a7.43,7.43,0,0,1,1.56.14l-.31,3a5.67,5.67,0,0,0-1.38-.16,4,4,0,0,0-3,1.25,4.65,4.65,0,0,0-1.16,3.27v7.9h-3.12V12.47h2.44l.42,2.67h.16A5.93,5.93,0,0,1,138.3,13,4.45,4.45,0,0,1,140.83,12.2Z"/><path d="M142.88,12.47h3.4l3,8.57a17,17,0,0,1,.9,3.45h.11a14.79,14.79,0,0,1,.43-1.82q.33-1.08,3.38-10.2h3.38L151.19,29.6q-1.71,4.73-5.72,4.72a9.07,9.07,0,0,1-2-.23V31.54a7.1,7.1,0,0,0,1.61.17c1.51,0,2.57-.9,3.18-2.69l.54-1.43Z"/><path class="cls-1" d="M173.72,27.6,166.4,9.88h-.12c.14,1.4.2,3.07.2,5V27.6h-2.31v-20H168l6.83,16.49h.12l6.89-16.49h3.75v20H183V14.72c0-1.48.07-3.08.21-4.82h-.12l-7.38,17.7Z"/><path class="cls-1" d="M197.17,27.87a7.79,7.79,0,0,1-5.66-2,7.51,7.51,0,0,1-2.07-5.62,8.28,8.28,0,0,1,1.92-5.76,6.65,6.65,0,0,1,5.18-2.13,6.35,6.35,0,0,1,4.81,1.85,6.78,6.78,0,0,1,1.77,4.89v1.43H192a5.68,5.68,0,0,0,1.44,4,5.19,5.19,0,0,0,3.84,1.37,13.84,13.84,0,0,0,5.17-1v2a14.37,14.37,0,0,1-2.46.74A14.83,14.83,0,0,1,197.17,27.87Zm-.66-13.63a4.18,4.18,0,0,0-3.11,1.17A5.2,5.2,0,0,0,192,18.67h8.45a4.74,4.74,0,0,0-1-3.29A3.78,3.78,0,0,0,196.51,14.24Z"/></g><g id="Слой_3" data-name="Слой 3"><path class="cls-1" d="M24.25,11.55A9.14,9.14,0,0,0,22,9.94,11.48,11.48,0,0,1,23,12.07,9.19,9.19,0,0,0,24.25,11.55Z"/><path class="cls-1" d="M13.51,17.38h3.87V14.1a15.56,15.56,0,0,1-3.32-.48A17.07,17.07,0,0,0,13.51,17.38Z"/><path class="cls-1" d="M14,22.08a16.25,16.25,0,0,1,3.39-.51V18.62H13.51A16.77,16.77,0,0,0,14,22.08Z"/><path class="cls-1" d="M14.45,12.44a16,16,0,0,0,2.93.42V9l-.54.05A6.59,6.59,0,0,0,14.45,12.44Z"/><path class="cls-1" d="M11.63,24.33a8.84,8.84,0,0,0,2.81,1.92,10.44,10.44,0,0,1-1.3-2.61A10.29,10.29,0,0,0,11.63,24.33Z"/><path class="cls-1" d="M14.43,9.75a9.33,9.33,0,0,0-2.59,1.71,10.28,10.28,0,0,0,1.4.62A10.45,10.45,0,0,1,14.43,9.75Z"/><path class="cls-1" d="M12.86,13.26A11.81,11.81,0,0,1,11,12.4a8.9,8.9,0,0,0-1.94,5h3.23A17.36,17.36,0,0,1,12.86,13.26Z"/><path class="cls-1" d="M12.27,18.62H9a8.94,8.94,0,0,0,1.76,4.76,10.59,10.59,0,0,1,2-.93A17.74,17.74,0,0,1,12.27,18.62Z"/><path class="cls-1" d="M16.86,26.91a4.36,4.36,0,0,0,.52.05V22.82a14.87,14.87,0,0,0-3,.44A6.83,6.83,0,0,0,16.86,26.91Z"/><path class="cls-1" d="M23.49,22.44a11.59,11.59,0,0,1,1.79.82A8.88,8.88,0,0,0,27,18.62H24A17.57,17.57,0,0,1,23.49,22.44Z"/><path class="cls-1" d="M22,26.07a9,9,0,0,0,2.5-1.83,10.6,10.6,0,0,0-1.33-.6A11.1,11.1,0,0,1,22,26.07Z"/><path class="cls-1" d="M18,0A18,18,0,1,0,36,18,18,18,0,0,0,18,0Zm0,28.86A10.86,10.86,0,1,1,28.85,18,10.87,10.87,0,0,1,18,28.86Z"/><path class="cls-1" d="M19.53,9.14c-.3-.05-.61-.08-.91-.1v3.83a15.79,15.79,0,0,0,3.21-.43A6.8,6.8,0,0,0,19.53,9.14Z"/><path class="cls-1" d="M23.41,13.26a16.88,16.88,0,0,1,.6,4.12h3a9,9,0,0,0-1.86-4.87A12.9,12.9,0,0,1,23.41,13.26Z"/><path class="cls-1" d="M18.62,27a8.65,8.65,0,0,0,.89-.1,7,7,0,0,0,2.42-3.59,14.75,14.75,0,0,0-3.31-.46Z"/><path class="cls-1" d="M22.21,13.62a16.08,16.08,0,0,1-3.59.49v3.27h4.15A16.51,16.51,0,0,0,22.21,13.62Z"/><path class="cls-1" d="M22.77,18.62H18.62v2.94a16.23,16.23,0,0,1,3.67.51A16.77,16.77,0,0,0,22.77,18.62Z"/></g></svg>